<svg width="30" height="30" viewBox="0 0 30 30" fill="none" xmlns="http://www.w3.org/2000/svg">
<path d="M18.6113 4.66529L15.9597 7.31694C15.5603 7.71632 15.138 8.24139 15 8.75004C14.862 8.24139 14.6357 7.71634 14.2364 7.31696L11.5847 4.66531C10.3643 3.44492 8.38568 3.44492 7.16529 4.66531C6.06448 5.76612 6.00101 7.52829 6.8861 8.75L15 8.75004L5.625 8.75002C3.89911 8.75002 2.5 10.1491 2.5 11.875C2.5 12.7267 2.84073 13.4988 3.3933 14.0625H14.994L15 14.0625L15.006 14.0625H26.6067C27.1593 13.4988 27.5 12.7267 27.5 11.875C27.5 10.1491 26.1009 8.75002 24.375 8.75002L23.0308 8.75002L23.3544 8.75C24.2394 7.52829 24.1316 5.7661 23.0308 4.66529C21.8104 3.4449 19.8317 3.4449 18.6113 4.66529Z" fill="#199EFF"/>
<path d="M3.72631 16.0445L3.72244 15.8931H14.0625V27.4556H13.125C10.2129 27.4556 8.7568 27.4556 7.60824 26.9572C6.07681 26.2926 4.8601 25.018 4.22576 23.4136C3.75005 22.2105 3.75005 20.6845 3.75005 17.6342C3.75005 16.9656 3.73713 16.4642 3.72631 16.0445Z" fill="#199EFF"/>
<path d="M22.3918 26.9572C21.2432 27.4556 19.7871 27.4556 16.875 27.4556H15.9375V15.8931H26.2429C26.25 16.3433 26.25 16.8833 26.25 17.6341C26.25 20.685 26.25 22.2104 25.7743 23.4136C25.1399 25.018 23.9232 26.2926 22.3918 26.9572Z" fill="#199EFF"/>
</svg>
